%TF.GenerationSoftware,KiCad,Pcbnew,(5.99.0-11177-g6c67dfa032)*%
%TF.CreationDate,2021-08-02T03:39:22-04:00*%
%TF.ProjectId,STM32+Codec,53544d33-322b-4436-9f64-65632e6b6963,1.0*%
%TF.SameCoordinates,Original*%
%TF.FileFunction,Soldermask,Bot*%
%TF.FilePolarity,Negative*%
%FSLAX46Y46*%
G04 Gerber Fmt 4.6, Leading zero omitted, Abs format (unit mm)*
G04 Created by KiCad (PCBNEW (5.99.0-11177-g6c67dfa032)) date 2021-08-02 03:39:22*
%MOMM*%
%LPD*%
G01*
G04 APERTURE LIST*
G04 Aperture macros list*
%AMRoundRect*
0 Rectangle with rounded corners*
0 $1 Rounding radius*
0 $2 $3 $4 $5 $6 $7 $8 $9 X,Y pos of 4 corners*
0 Add a 4 corners polygon primitive as box body*
4,1,4,$2,$3,$4,$5,$6,$7,$8,$9,$2,$3,0*
0 Add four circle primitives for the rounded corners*
1,1,$1+$1,$2,$3*
1,1,$1+$1,$4,$5*
1,1,$1+$1,$6,$7*
1,1,$1+$1,$8,$9*
0 Add four rect primitives between the rounded corners*
20,1,$1+$1,$2,$3,$4,$5,0*
20,1,$1+$1,$4,$5,$6,$7,0*
20,1,$1+$1,$6,$7,$8,$9,0*
20,1,$1+$1,$8,$9,$2,$3,0*%
G04 Aperture macros list end*
%ADD10C,0.800000*%
%ADD11C,5.400000*%
%ADD12C,1.200000*%
%ADD13R,1.800000X2.500000*%
%ADD14R,2.500000X1.800000*%
%ADD15R,2.400000X2.400000*%
%ADD16C,2.400000*%
%ADD17RoundRect,0.200000X0.450000X-0.200000X0.450000X0.200000X-0.450000X0.200000X-0.450000X-0.200000X0*%
%ADD18O,1.300000X0.800000*%
%ADD19RoundRect,0.200000X0.200000X0.450000X-0.200000X0.450000X-0.200000X-0.450000X0.200000X-0.450000X0*%
%ADD20O,0.800000X1.300000*%
%ADD21C,0.900000*%
%ADD22O,1.900000X1.000000*%
%ADD23O,1.250000X1.050000*%
G04 APERTURE END LIST*
D10*
%TO.C,H4*%
X111540891Y-52485891D03*
X108677109Y-49622109D03*
X110109000Y-49029000D03*
X110109000Y-53079000D03*
X108084000Y-51054000D03*
X112134000Y-51054000D03*
X108677109Y-52485891D03*
D11*
X110109000Y-51054000D03*
D10*
X111540891Y-49622109D03*
%TD*%
D12*
%TO.C,Mic*%
X159842200Y-65891400D03*
X157342200Y-65891400D03*
X157342200Y-75891400D03*
X164842200Y-70891400D03*
X159842200Y-75891400D03*
D13*
X159842200Y-70891400D03*
D14*
X164842200Y-75891400D03*
X164842200Y-65891400D03*
%TD*%
D15*
%TO.C,+12V*%
X154226200Y-51779400D03*
D16*
X150726200Y-51779400D03*
%TD*%
D17*
%TO.C,I2C*%
X109347000Y-74757600D03*
D18*
X109347000Y-73507600D03*
X109347000Y-72257600D03*
X109347000Y-71007600D03*
%TD*%
D19*
%TO.C,UART*%
X120604600Y-88595200D03*
D20*
X119354600Y-88595200D03*
X118104600Y-88595200D03*
X116854600Y-88595200D03*
%TD*%
D12*
%TO.C,Speaker*%
X157379600Y-79912200D03*
X159879600Y-89912200D03*
X157379600Y-89912200D03*
X159879600Y-79912200D03*
X164879600Y-84912200D03*
D13*
X159879600Y-84912200D03*
D14*
X164879600Y-89912200D03*
X164879600Y-79912200D03*
%TD*%
D21*
%TO.C,BOOT*%
X117422800Y-51478400D03*
X120422800Y-51478400D03*
%TD*%
D22*
%TO.C,USB*%
X165128800Y-54981600D03*
D23*
X162128800Y-56931600D03*
X162128800Y-61381600D03*
D22*
X165128800Y-63331600D03*
%TD*%
D11*
%TO.C,H3*%
X163779200Y-50749200D03*
D10*
X161754200Y-50749200D03*
X163779200Y-48724200D03*
X165804200Y-50749200D03*
X165211091Y-49317309D03*
X162347309Y-52181091D03*
X163779200Y-52774200D03*
X165211091Y-52181091D03*
X162347309Y-49317309D03*
%TD*%
%TO.C,H1*%
X112489600Y-85598000D03*
X110464600Y-83573000D03*
X111896491Y-84166109D03*
X109032709Y-84166109D03*
D11*
X110464600Y-85598000D03*
D10*
X108439600Y-85598000D03*
X111896491Y-87029891D03*
X110464600Y-87623000D03*
X109032709Y-87029891D03*
%TD*%
%TO.C,H2*%
X143071200Y-86233000D03*
X142478091Y-87664891D03*
X141046200Y-84208000D03*
X139614309Y-84801109D03*
X139614309Y-87664891D03*
X141046200Y-88258000D03*
D11*
X141046200Y-86233000D03*
D10*
X142478091Y-84801109D03*
X139021200Y-86233000D03*
%TD*%
M02*
