%TF.GenerationSoftware,KiCad,Pcbnew,(5.99.0-11177-g6c67dfa032)*%
%TF.CreationDate,2021-08-02T03:39:22-04:00*%
%TF.ProjectId,STM32+Codec,53544d33-322b-4436-9f64-65632e6b6963,1.0*%
%TF.SameCoordinates,Original*%
%TF.FileFunction,Paste,Top*%
%TF.FilePolarity,Positive*%
%FSLAX46Y46*%
G04 Gerber Fmt 4.6, Leading zero omitted, Abs format (unit mm)*
G04 Created by KiCad (PCBNEW (5.99.0-11177-g6c67dfa032)) date 2021-08-02 03:39:22*
%MOMM*%
%LPD*%
G01*
G04 APERTURE LIST*
G04 Aperture macros list*
%AMRoundRect*
0 Rectangle with rounded corners*
0 $1 Rounding radius*
0 $2 $3 $4 $5 $6 $7 $8 $9 X,Y pos of 4 corners*
0 Add a 4 corners polygon primitive as box body*
4,1,4,$2,$3,$4,$5,$6,$7,$8,$9,$2,$3,0*
0 Add four circle primitives for the rounded corners*
1,1,$1+$1,$2,$3*
1,1,$1+$1,$4,$5*
1,1,$1+$1,$6,$7*
1,1,$1+$1,$8,$9*
0 Add four rect primitives between the rounded corners*
20,1,$1+$1,$2,$3,$4,$5,0*
20,1,$1+$1,$4,$5,$6,$7,0*
20,1,$1+$1,$6,$7,$8,$9,0*
20,1,$1+$1,$8,$9,$2,$3,0*%
G04 Aperture macros list end*
%ADD10RoundRect,0.140000X0.140000X0.170000X-0.140000X0.170000X-0.140000X-0.170000X0.140000X-0.170000X0*%
%ADD11RoundRect,0.218750X-0.256250X0.218750X-0.256250X-0.218750X0.256250X-0.218750X0.256250X0.218750X0*%
%ADD12RoundRect,0.135000X-0.185000X0.135000X-0.185000X-0.135000X0.185000X-0.135000X0.185000X0.135000X0*%
%ADD13RoundRect,0.200000X-0.275000X0.200000X-0.275000X-0.200000X0.275000X-0.200000X0.275000X0.200000X0*%
%ADD14RoundRect,0.147500X-0.147500X-0.172500X0.147500X-0.172500X0.147500X0.172500X-0.147500X0.172500X0*%
%ADD15RoundRect,0.225000X-0.225000X-0.250000X0.225000X-0.250000X0.225000X0.250000X-0.225000X0.250000X0*%
%ADD16RoundRect,0.225000X-0.250000X0.225000X-0.250000X-0.225000X0.250000X-0.225000X0.250000X0.225000X0*%
%ADD17R,2.400000X0.740000*%
%ADD18RoundRect,0.150000X-0.587500X-0.150000X0.587500X-0.150000X0.587500X0.150000X-0.587500X0.150000X0*%
%ADD19RoundRect,0.218750X0.256250X-0.218750X0.256250X0.218750X-0.256250X0.218750X-0.256250X-0.218750X0*%
%ADD20RoundRect,0.135000X0.185000X-0.135000X0.185000X0.135000X-0.185000X0.135000X-0.185000X-0.135000X0*%
%ADD21RoundRect,0.150000X-0.150000X0.512500X-0.150000X-0.512500X0.150000X-0.512500X0.150000X0.512500X0*%
%ADD22R,1.900000X2.500000*%
%ADD23RoundRect,0.140000X-0.170000X0.140000X-0.170000X-0.140000X0.170000X-0.140000X0.170000X0.140000X0*%
%ADD24RoundRect,0.150000X-0.825000X-0.150000X0.825000X-0.150000X0.825000X0.150000X-0.825000X0.150000X0*%
%ADD25RoundRect,0.140000X-0.140000X-0.170000X0.140000X-0.170000X0.140000X0.170000X-0.140000X0.170000X0*%
%ADD26R,1.400000X1.200000*%
%ADD27RoundRect,0.200000X-0.200000X-0.275000X0.200000X-0.275000X0.200000X0.275000X-0.200000X0.275000X0*%
%ADD28RoundRect,0.250000X-0.325000X-0.650000X0.325000X-0.650000X0.325000X0.650000X-0.325000X0.650000X0*%
%ADD29RoundRect,0.147500X0.172500X-0.147500X0.172500X0.147500X-0.172500X0.147500X-0.172500X-0.147500X0*%
%ADD30RoundRect,0.140000X0.170000X-0.140000X0.170000X0.140000X-0.170000X0.140000X-0.170000X-0.140000X0*%
%ADD31R,0.700000X1.500000*%
%ADD32R,1.000000X0.800000*%
%ADD33R,0.850000X0.300000*%
%ADD34R,1.350000X0.400000*%
%ADD35R,1.900000X2.900000*%
%ADD36RoundRect,0.075000X-0.700000X-0.075000X0.700000X-0.075000X0.700000X0.075000X-0.700000X0.075000X0*%
%ADD37RoundRect,0.075000X-0.075000X-0.700000X0.075000X-0.700000X0.075000X0.700000X-0.075000X0.700000X0*%
%ADD38R,1.750000X0.450000*%
%ADD39RoundRect,0.250000X-0.650000X0.325000X-0.650000X-0.325000X0.650000X-0.325000X0.650000X0.325000X0*%
%ADD40RoundRect,0.218750X0.381250X-0.218750X0.381250X0.218750X-0.381250X0.218750X-0.381250X-0.218750X0*%
%ADD41RoundRect,0.200000X0.275000X-0.200000X0.275000X0.200000X-0.275000X0.200000X-0.275000X-0.200000X0*%
%ADD42RoundRect,0.218750X-0.218750X-0.256250X0.218750X-0.256250X0.218750X0.256250X-0.218750X0.256250X0*%
%ADD43RoundRect,0.135000X-0.135000X-0.185000X0.135000X-0.185000X0.135000X0.185000X-0.135000X0.185000X0*%
%ADD44RoundRect,0.135000X0.135000X0.185000X-0.135000X0.185000X-0.135000X-0.185000X0.135000X-0.185000X0*%
%ADD45RoundRect,0.250000X0.375000X0.625000X-0.375000X0.625000X-0.375000X-0.625000X0.375000X-0.625000X0*%
%ADD46RoundRect,0.225000X0.250000X-0.225000X0.250000X0.225000X-0.250000X0.225000X-0.250000X-0.225000X0*%
G04 APERTURE END LIST*
D10*
%TO.C,C21*%
X150873400Y-61493400D03*
X149913400Y-61493400D03*
%TD*%
D11*
%TO.C,D3*%
X134239000Y-51384100D03*
X134239000Y-52959100D03*
%TD*%
D12*
%TO.C,R17*%
X151892000Y-64539400D03*
X151892000Y-65559400D03*
%TD*%
D13*
%TO.C,R4*%
X134239000Y-54674000D03*
X134239000Y-56324000D03*
%TD*%
D14*
%TO.C,L2*%
X118440200Y-72313800D03*
X119410200Y-72313800D03*
%TD*%
D15*
%TO.C,C5*%
X132244800Y-77063600D03*
X133794800Y-77063600D03*
%TD*%
D16*
%TO.C,C19*%
X147599400Y-84721400D03*
X147599400Y-86271400D03*
%TD*%
D17*
%TO.C,SWD*%
X128656800Y-82778600D03*
X132556800Y-82778600D03*
X128656800Y-84048600D03*
X132556800Y-84048600D03*
X128656800Y-85318600D03*
X132556800Y-85318600D03*
X128656800Y-86588600D03*
X132556800Y-86588600D03*
X128656800Y-87858600D03*
X132556800Y-87858600D03*
%TD*%
D18*
%TO.C,Q1*%
X146201200Y-56290200D03*
X146201200Y-58190200D03*
X148076200Y-57240200D03*
%TD*%
D19*
%TO.C,D4*%
X145618200Y-67411600D03*
X145618200Y-65836600D03*
%TD*%
D20*
%TO.C,R15*%
X149250400Y-65483200D03*
X149250400Y-64463200D03*
%TD*%
D12*
%TO.C,R8*%
X124053600Y-77620400D03*
X124053600Y-78640400D03*
%TD*%
D21*
%TO.C,USBLC6*%
X158684000Y-58222300D03*
X157734000Y-58222300D03*
X156784000Y-58222300D03*
X156784000Y-60497300D03*
X157734000Y-60497300D03*
X158684000Y-60497300D03*
%TD*%
D22*
%TO.C,L1*%
X140901200Y-51358800D03*
X145001200Y-51358800D03*
%TD*%
D23*
%TO.C,C10*%
X136118600Y-62994600D03*
X136118600Y-63954600D03*
%TD*%
D24*
%TO.C,U2*%
X125972800Y-51790600D03*
X125972800Y-53060600D03*
X125972800Y-54330600D03*
X125972800Y-55600600D03*
X130922800Y-55600600D03*
X130922800Y-54330600D03*
X130922800Y-53060600D03*
X130922800Y-51790600D03*
%TD*%
D12*
%TO.C,R3*%
X116992400Y-66774600D03*
X116992400Y-67794600D03*
%TD*%
D15*
%TO.C,C3*%
X122923000Y-62611000D03*
X124473000Y-62611000D03*
%TD*%
D25*
%TO.C,C9*%
X134851200Y-74828400D03*
X135811200Y-74828400D03*
%TD*%
D12*
%TO.C,R10*%
X124968000Y-80744600D03*
X124968000Y-81764600D03*
%TD*%
D26*
%TO.C,Y1*%
X120937200Y-66663200D03*
X118737200Y-66663200D03*
X118737200Y-68363200D03*
X120937200Y-68363200D03*
%TD*%
D12*
%TO.C,R18*%
X117429600Y-80973200D03*
X117429600Y-81993200D03*
%TD*%
D27*
%TO.C,R2*%
X128283200Y-58293000D03*
X129933200Y-58293000D03*
%TD*%
D28*
%TO.C,C12*%
X134237200Y-58928000D03*
X137187200Y-58928000D03*
%TD*%
D20*
%TO.C,R14*%
X151942800Y-68607400D03*
X151942800Y-67587400D03*
%TD*%
D16*
%TO.C,C20*%
X147523200Y-88125000D03*
X147523200Y-89675000D03*
%TD*%
D20*
%TO.C,R16*%
X150545800Y-89410000D03*
X150545800Y-88390000D03*
%TD*%
D29*
%TO.C,D1*%
X120751600Y-75272100D03*
X120751600Y-74302100D03*
%TD*%
D30*
%TO.C,C13*%
X121208800Y-71346000D03*
X121208800Y-70386000D03*
%TD*%
D31*
%TO.C,BOOT*%
X116672800Y-53238400D03*
X118172800Y-53238400D03*
X121172800Y-53238400D03*
D32*
X115272800Y-50378400D03*
X122572800Y-50378400D03*
X115272800Y-52588400D03*
X122572800Y-52588400D03*
%TD*%
D33*
%TO.C,USB*%
X165128800Y-55656600D03*
X165128800Y-62656600D03*
D34*
X162453800Y-57856600D03*
X162453800Y-58506600D03*
X162453800Y-59156600D03*
X162453800Y-59806600D03*
X162453800Y-60456600D03*
D35*
X165128800Y-59156600D03*
%TD*%
D36*
%TO.C,STM32F*%
X124373000Y-65084000D03*
X124373000Y-65584000D03*
X124373000Y-66084000D03*
X124373000Y-66584000D03*
X124373000Y-67084000D03*
X124373000Y-67584000D03*
X124373000Y-68084000D03*
X124373000Y-68584000D03*
X124373000Y-69084000D03*
X124373000Y-69584000D03*
X124373000Y-70084000D03*
X124373000Y-70584000D03*
X124373000Y-71084000D03*
X124373000Y-71584000D03*
X124373000Y-72084000D03*
X124373000Y-72584000D03*
D37*
X126298000Y-74509000D03*
X126798000Y-74509000D03*
X127298000Y-74509000D03*
X127798000Y-74509000D03*
X128298000Y-74509000D03*
X128798000Y-74509000D03*
X129298000Y-74509000D03*
X129798000Y-74509000D03*
X130298000Y-74509000D03*
X130798000Y-74509000D03*
X131298000Y-74509000D03*
X131798000Y-74509000D03*
X132298000Y-74509000D03*
X132798000Y-74509000D03*
X133298000Y-74509000D03*
X133798000Y-74509000D03*
D36*
X135723000Y-72584000D03*
X135723000Y-72084000D03*
X135723000Y-71584000D03*
X135723000Y-71084000D03*
X135723000Y-70584000D03*
X135723000Y-70084000D03*
X135723000Y-69584000D03*
X135723000Y-69084000D03*
X135723000Y-68584000D03*
X135723000Y-68084000D03*
X135723000Y-67584000D03*
X135723000Y-67084000D03*
X135723000Y-66584000D03*
X135723000Y-66084000D03*
X135723000Y-65584000D03*
X135723000Y-65084000D03*
D37*
X133798000Y-63159000D03*
X133298000Y-63159000D03*
X132798000Y-63159000D03*
X132298000Y-63159000D03*
X131798000Y-63159000D03*
X131298000Y-63159000D03*
X130798000Y-63159000D03*
X130298000Y-63159000D03*
X129798000Y-63159000D03*
X129298000Y-63159000D03*
X128798000Y-63159000D03*
X128298000Y-63159000D03*
X127798000Y-63159000D03*
X127298000Y-63159000D03*
X126798000Y-63159000D03*
X126298000Y-63159000D03*
%TD*%
D30*
%TO.C,C22*%
X149072600Y-67790000D03*
X149072600Y-66830000D03*
%TD*%
D38*
%TO.C,Codec*%
X142043600Y-71213000D03*
X142043600Y-71863000D03*
X142043600Y-72513000D03*
X142043600Y-73163000D03*
X142043600Y-73813000D03*
X142043600Y-74463000D03*
X142043600Y-75113000D03*
X142043600Y-75763000D03*
X142043600Y-76413000D03*
X142043600Y-77063000D03*
X142043600Y-77713000D03*
X142043600Y-78363000D03*
X142043600Y-79013000D03*
X142043600Y-79663000D03*
X149243600Y-79663000D03*
X149243600Y-79013000D03*
X149243600Y-78363000D03*
X149243600Y-77713000D03*
X149243600Y-77063000D03*
X149243600Y-76413000D03*
X149243600Y-75763000D03*
X149243600Y-75113000D03*
X149243600Y-74463000D03*
X149243600Y-73813000D03*
X149243600Y-73163000D03*
X149243600Y-72513000D03*
X149243600Y-71863000D03*
X149243600Y-71213000D03*
%TD*%
D12*
%TO.C,R20*%
X118953600Y-80945800D03*
X118953600Y-81965800D03*
%TD*%
D39*
%TO.C,C4*%
X140716000Y-55852800D03*
X140716000Y-58802800D03*
%TD*%
D16*
%TO.C,C16*%
X139547600Y-71970600D03*
X139547600Y-73520600D03*
%TD*%
%TO.C,C17*%
X151663400Y-78815600D03*
X151663400Y-80365600D03*
%TD*%
D40*
%TO.C,FB1*%
X143814800Y-58644300D03*
X143814800Y-56519300D03*
%TD*%
D25*
%TO.C,C2*%
X118188800Y-64846200D03*
X119148800Y-64846200D03*
%TD*%
D13*
%TO.C,R1*%
X122783600Y-74028800D03*
X122783600Y-75678800D03*
%TD*%
D30*
%TO.C,C1*%
X122682000Y-67485200D03*
X122682000Y-66525200D03*
%TD*%
D12*
%TO.C,R19*%
X150672800Y-85570600D03*
X150672800Y-86590600D03*
%TD*%
D16*
%TO.C,C15*%
X139573000Y-76517200D03*
X139573000Y-78067200D03*
%TD*%
D41*
%TO.C,R5*%
X140919200Y-62521600D03*
X140919200Y-60871600D03*
%TD*%
D42*
%TO.C,D2*%
X150240900Y-59156600D03*
X151815900Y-59156600D03*
%TD*%
D43*
%TO.C,R7*%
X116380800Y-76123800D03*
X117400800Y-76123800D03*
%TD*%
D30*
%TO.C,C14*%
X122504200Y-71295200D03*
X122504200Y-70335200D03*
%TD*%
D43*
%TO.C,R6*%
X123213400Y-59740800D03*
X124233400Y-59740800D03*
%TD*%
D41*
%TO.C,R21*%
X143052800Y-66306200D03*
X143052800Y-64656200D03*
%TD*%
D10*
%TO.C,C8*%
X127632400Y-76250800D03*
X126672400Y-76250800D03*
%TD*%
D44*
%TO.C,R11*%
X134977600Y-80314800D03*
X133957600Y-80314800D03*
%TD*%
%TO.C,R12*%
X117451600Y-73253600D03*
X116431600Y-73253600D03*
%TD*%
D15*
%TO.C,C18*%
X148348400Y-82499200D03*
X149898400Y-82499200D03*
%TD*%
D45*
%TO.C,F1*%
X146053000Y-61976000D03*
X143253000Y-61976000D03*
%TD*%
D25*
%TO.C,C11*%
X125732600Y-61417200D03*
X126692600Y-61417200D03*
%TD*%
D46*
%TO.C,C7*%
X138112800Y-65214800D03*
X138112800Y-63664800D03*
%TD*%
D25*
%TO.C,C6*%
X121671200Y-64897000D03*
X122631200Y-64897000D03*
%TD*%
D20*
%TO.C,R9*%
X132664200Y-80875600D03*
X132664200Y-79855600D03*
%TD*%
D44*
%TO.C,R13*%
X116890800Y-70637400D03*
X115870800Y-70637400D03*
%TD*%
M02*
