%TF.GenerationSoftware,KiCad,Pcbnew,(5.99.0-11177-g6c67dfa032)*%
%TF.CreationDate,2021-08-02T03:39:22-04:00*%
%TF.ProjectId,STM32+Codec,53544d33-322b-4436-9f64-65632e6b6963,1.0*%
%TF.SameCoordinates,Original*%
%TF.FileFunction,Copper,L4,Bot*%
%TF.FilePolarity,Positive*%
%FSLAX46Y46*%
G04 Gerber Fmt 4.6, Leading zero omitted, Abs format (unit mm)*
G04 Created by KiCad (PCBNEW (5.99.0-11177-g6c67dfa032)) date 2021-08-02 03:39:22*
%MOMM*%
%LPD*%
G01*
G04 APERTURE LIST*
G04 Aperture macros list*
%AMRoundRect*
0 Rectangle with rounded corners*
0 $1 Rounding radius*
0 $2 $3 $4 $5 $6 $7 $8 $9 X,Y pos of 4 corners*
0 Add a 4 corners polygon primitive as box body*
4,1,4,$2,$3,$4,$5,$6,$7,$8,$9,$2,$3,0*
0 Add four circle primitives for the rounded corners*
1,1,$1+$1,$2,$3*
1,1,$1+$1,$4,$5*
1,1,$1+$1,$6,$7*
1,1,$1+$1,$8,$9*
0 Add four rect primitives between the rounded corners*
20,1,$1+$1,$2,$3,$4,$5,0*
20,1,$1+$1,$4,$5,$6,$7,0*
20,1,$1+$1,$6,$7,$8,$9,0*
20,1,$1+$1,$8,$9,$2,$3,0*%
G04 Aperture macros list end*
%TA.AperFunction,ComponentPad*%
%ADD10C,0.800000*%
%TD*%
%TA.AperFunction,ComponentPad*%
%ADD11C,5.400000*%
%TD*%
%TA.AperFunction,ComponentPad*%
%ADD12R,1.800000X2.500000*%
%TD*%
%TA.AperFunction,ComponentPad*%
%ADD13R,2.500000X1.800000*%
%TD*%
%TA.AperFunction,ComponentPad*%
%ADD14R,2.400000X2.400000*%
%TD*%
%TA.AperFunction,ComponentPad*%
%ADD15C,2.400000*%
%TD*%
%TA.AperFunction,ComponentPad*%
%ADD16RoundRect,0.200000X0.450000X-0.200000X0.450000X0.200000X-0.450000X0.200000X-0.450000X-0.200000X0*%
%TD*%
%TA.AperFunction,ComponentPad*%
%ADD17O,1.300000X0.800000*%
%TD*%
%TA.AperFunction,ComponentPad*%
%ADD18RoundRect,0.200000X0.200000X0.450000X-0.200000X0.450000X-0.200000X-0.450000X0.200000X-0.450000X0*%
%TD*%
%TA.AperFunction,ComponentPad*%
%ADD19O,0.800000X1.300000*%
%TD*%
%TA.AperFunction,ComponentPad*%
%ADD20O,1.900000X1.000000*%
%TD*%
%TA.AperFunction,ComponentPad*%
%ADD21O,1.250000X1.050000*%
%TD*%
%TA.AperFunction,ViaPad*%
%ADD22C,0.800000*%
%TD*%
%TA.AperFunction,Conductor*%
%ADD23C,0.300000*%
%TD*%
%TA.AperFunction,Conductor*%
%ADD24C,0.200000*%
%TD*%
%TA.AperFunction,Conductor*%
%ADD25C,0.500000*%
%TD*%
G04 APERTURE END LIST*
D10*
%TO.P,H4,1,1*%
%TO.N,GND*%
X111540891Y-52485891D03*
X108677109Y-49622109D03*
X110109000Y-49029000D03*
X110109000Y-53079000D03*
X108084000Y-51054000D03*
X112134000Y-51054000D03*
X108677109Y-52485891D03*
D11*
X110109000Y-51054000D03*
D10*
X111540891Y-49622109D03*
%TD*%
D12*
%TO.P,Mic,1,S*%
%TO.N,GND*%
X159842200Y-70891400D03*
D13*
%TO.P,Mic,2,T*%
X164842200Y-75891400D03*
%TO.P,Mic,3,R*%
%TO.N,Net-(C21-Pad1)*%
X164842200Y-65891400D03*
%TD*%
D14*
%TO.P,+12V,1,Pin_1*%
%TO.N,+12V*%
X154226200Y-51779400D03*
D15*
%TO.P,+12V,2,Pin_2*%
%TO.N,GND*%
X150726200Y-51779400D03*
%TD*%
D16*
%TO.P,I2C,1,Pin_1*%
%TO.N,DBVDD*%
X109347000Y-74757600D03*
D17*
%TO.P,I2C,2,Pin_2*%
%TO.N,Net-(J4-Pad2)*%
X109347000Y-73507600D03*
%TO.P,I2C,3,Pin_3*%
%TO.N,Net-(J4-Pad3)*%
X109347000Y-72257600D03*
%TO.P,I2C,4,Pin_4*%
%TO.N,GND*%
X109347000Y-71007600D03*
%TD*%
D18*
%TO.P,UART,1,Pin_1*%
%TO.N,DBVDD*%
X120604600Y-88595200D03*
D19*
%TO.P,UART,2,Pin_2*%
%TO.N,Net-(J7-Pad2)*%
X119354600Y-88595200D03*
%TO.P,UART,3,Pin_3*%
%TO.N,Net-(J7-Pad3)*%
X118104600Y-88595200D03*
%TO.P,UART,4,Pin_4*%
%TO.N,GND*%
X116854600Y-88595200D03*
%TD*%
D12*
%TO.P,Speaker,1,S*%
%TO.N,GND*%
X159879600Y-84912200D03*
D13*
%TO.P,Speaker,2,T*%
%TO.N,Net-(C20-Pad2)*%
X164879600Y-89912200D03*
%TO.P,Speaker,3,R*%
%TO.N,Net-(C19-Pad2)*%
X164879600Y-79912200D03*
%TD*%
D20*
%TO.P,USB,6,Shield*%
%TO.N,unconnected-(J3-Pad6)*%
X165128800Y-54981600D03*
D21*
X162128800Y-56931600D03*
X162128800Y-61381600D03*
D20*
X165128800Y-63331600D03*
%TD*%
D11*
%TO.P,H3,1,1*%
%TO.N,GND*%
X163779200Y-50749200D03*
D10*
X161754200Y-50749200D03*
X163779200Y-48724200D03*
X165804200Y-50749200D03*
X165211091Y-49317309D03*
X162347309Y-52181091D03*
X163779200Y-52774200D03*
X165211091Y-52181091D03*
X162347309Y-49317309D03*
%TD*%
%TO.P,H1,1,1*%
%TO.N,GND*%
X112489600Y-85598000D03*
X110464600Y-83573000D03*
X111896491Y-84166109D03*
X109032709Y-84166109D03*
D11*
X110464600Y-85598000D03*
D10*
X108439600Y-85598000D03*
X111896491Y-87029891D03*
X110464600Y-87623000D03*
X109032709Y-87029891D03*
%TD*%
%TO.P,H2,1,1*%
%TO.N,GND*%
X143071200Y-86233000D03*
X142478091Y-87664891D03*
X141046200Y-84208000D03*
X139614309Y-84801109D03*
X139614309Y-87664891D03*
X141046200Y-88258000D03*
D11*
X141046200Y-86233000D03*
D10*
X142478091Y-84801109D03*
X139021200Y-86233000D03*
%TD*%
D22*
%TO.N,GND*%
X149377400Y-80187800D03*
X136829800Y-63982600D03*
X150063200Y-86715600D03*
X161036000Y-86055200D03*
X149402800Y-61036200D03*
X127228600Y-87909400D03*
X145846800Y-56845200D03*
X157683200Y-57353200D03*
X160883600Y-69392800D03*
X150393400Y-75260200D03*
X137236200Y-60172600D03*
X141808200Y-60858400D03*
X135737600Y-75463400D03*
X150317200Y-83185000D03*
X139001800Y-63627000D03*
X158877000Y-72288400D03*
X140741400Y-59690000D03*
X120624600Y-70256400D03*
X122021600Y-75793600D03*
X120116600Y-67894200D03*
X158826200Y-69469000D03*
X124256800Y-63423800D03*
X127177800Y-84175600D03*
X129590800Y-54457600D03*
X143891000Y-64643000D03*
X110109000Y-70612000D03*
X150266400Y-70789800D03*
X125960916Y-60490300D03*
X116586000Y-87680800D03*
X138938000Y-74168000D03*
X158750000Y-86029800D03*
X134493000Y-77647800D03*
X118338600Y-65786000D03*
X142011400Y-58801000D03*
X135077200Y-53365400D03*
X126263400Y-76733400D03*
X138988800Y-78790800D03*
X126883685Y-86042700D03*
X163347400Y-60706000D03*
X116255800Y-54279800D03*
X158877000Y-83489800D03*
X160959800Y-83489800D03*
X122783600Y-65506600D03*
X140745780Y-77713000D03*
X151434800Y-65989200D03*
%TO.N,RXD*%
X122224800Y-77419200D03*
X125120400Y-76784200D03*
%TO.N,I2C_SCL*%
X129819400Y-66852800D03*
X147942500Y-73812400D03*
%TO.N,I2C_SDA*%
X127101600Y-72491600D03*
X126847600Y-65532000D03*
X151815800Y-70383400D03*
X122428000Y-72517000D03*
%TO.N,Net-(J4-Pad3)*%
X112242600Y-72313800D03*
X114808000Y-73253600D03*
%TO.N,SWO*%
X130581400Y-68656200D03*
X123367800Y-80746600D03*
%TO.N,Net-(J1-Pad6)*%
X135737600Y-85293200D03*
X124815600Y-84836000D03*
%TO.N,SWDIO*%
X133604000Y-70104000D03*
X132689600Y-78460600D03*
%TO.N,DBVDD*%
X134543800Y-75412600D03*
X126060200Y-64236600D03*
X116179600Y-75565000D03*
X118237000Y-71704200D03*
X147945780Y-71863000D03*
X133527800Y-59867800D03*
X121081800Y-87858600D03*
X122199400Y-62331600D03*
X144449800Y-52755800D03*
X125399800Y-64897000D03*
X144500600Y-49834800D03*
X140106400Y-71424800D03*
X109880400Y-75336400D03*
X124282200Y-55041800D03*
X127152400Y-82550000D03*
X128507877Y-76666477D03*
X146481800Y-65506600D03*
X122555000Y-59766200D03*
X138988800Y-75895200D03*
X135686800Y-62560200D03*
X121081800Y-64871600D03*
X127203200Y-55524400D03*
%TO.N,HSE_OUT*%
X126415800Y-67665600D03*
X122631200Y-68427600D03*
%TO.N,USB_D+*%
X138836400Y-66988200D03*
X157209000Y-62407800D03*
%TO.N,+5V*%
X157789316Y-59883820D03*
X161213800Y-57886600D03*
X153924000Y-59258200D03*
X157729279Y-61095409D03*
%TO.N,USB_D-*%
X158259000Y-62407800D03*
X138836400Y-68038200D03*
%TO.N,I2S_SCLK*%
X145529100Y-71666300D03*
X137363200Y-69570600D03*
X143840200Y-72339200D03*
X137245873Y-72494427D03*
%TO.N,I2S_LRCK*%
X144246600Y-75006200D03*
X137261600Y-75717400D03*
%TO.N,+3.3VA*%
X125984000Y-71094600D03*
X137871200Y-79629000D03*
X129794000Y-71221600D03*
X131330900Y-71272400D03*
%TO.N,I2S_MCLK*%
X151231600Y-73253600D03*
X139471400Y-69951600D03*
%TD*%
D23*
%TO.N,RXD*%
X122859800Y-76784200D02*
X122224800Y-77419200D01*
X125120400Y-76784200D02*
X122859800Y-76784200D01*
%TO.N,I2C_SCL*%
X137332402Y-68300600D02*
X138319032Y-69287230D01*
X134474430Y-66852800D02*
X135922230Y-68300600D01*
X138400631Y-70779001D02*
X141434030Y-73812400D01*
X135922230Y-68300600D02*
X137332402Y-68300600D01*
X138400631Y-69287230D02*
X138400631Y-70779001D01*
X129819400Y-66852800D02*
X134474430Y-66852800D01*
X138319032Y-69287230D02*
X138400631Y-69287230D01*
X141434030Y-73812400D02*
X147942500Y-73812400D01*
%TO.N,I2C_SDA*%
X133860058Y-65532000D02*
X126847600Y-65532000D01*
X138525941Y-68787711D02*
X137530830Y-67792600D01*
X122428000Y-72517000D02*
X127076200Y-72517000D01*
X149020131Y-68787711D02*
X138525941Y-68787711D01*
X137530830Y-67792600D02*
X136120658Y-67792600D01*
X151815800Y-70383400D02*
X149620121Y-68187721D01*
X149620121Y-68187721D02*
X149020131Y-68787711D01*
X136120658Y-67792600D02*
X133860058Y-65532000D01*
X127076200Y-72517000D02*
X127101600Y-72491600D01*
%TO.N,Net-(J4-Pad3)*%
X113868200Y-72313800D02*
X114808000Y-73253600D01*
X112242600Y-72313800D02*
X113868200Y-72313800D01*
%TO.N,SWO*%
X130581400Y-68656200D02*
X130581400Y-73533000D01*
X130581400Y-73533000D02*
X123367800Y-80746600D01*
%TO.N,Net-(J1-Pad6)*%
X125272800Y-85293200D02*
X124815600Y-84836000D01*
X135737600Y-85293200D02*
X125272800Y-85293200D01*
%TO.N,SWDIO*%
X133604000Y-70104000D02*
X132689600Y-71018400D01*
X132689600Y-71018400D02*
X132689600Y-78460600D01*
%TO.N,HSE_OUT*%
X122631200Y-68427600D02*
X125653800Y-68427600D01*
X125653800Y-68427600D02*
X126415800Y-67665600D01*
D24*
%TO.N,USB_D+*%
X157209000Y-62821403D02*
X152742204Y-67288199D01*
X157209000Y-62407800D02*
X157209000Y-62821403D01*
X139136399Y-67288199D02*
X138836400Y-66988200D01*
X152742204Y-67288199D02*
X139136399Y-67288199D01*
D25*
%TO.N,+5V*%
X157789316Y-59883820D02*
X159216580Y-59883820D01*
X155761209Y-61095409D02*
X153924000Y-59258200D01*
X159216580Y-59883820D02*
X161213800Y-57886600D01*
X157729279Y-61095409D02*
X155761209Y-61095409D01*
D24*
%TO.N,USB_D-*%
X158259000Y-62407800D02*
X152928599Y-67738201D01*
X152928599Y-67738201D02*
X139136399Y-67738201D01*
X139136399Y-67738201D02*
X138836400Y-68038200D01*
D23*
%TO.N,I2S_SCLK*%
X137245873Y-69687927D02*
X137363200Y-69570600D01*
X137245873Y-72494427D02*
X137245873Y-69687927D01*
X145529100Y-71666300D02*
X144513100Y-71666300D01*
X144513100Y-71666300D02*
X143840200Y-72339200D01*
%TO.N,I2S_LRCK*%
X144107111Y-75145689D02*
X144246600Y-75006200D01*
X139230311Y-75145689D02*
X144107111Y-75145689D01*
X137833311Y-75145689D02*
X139230311Y-75145689D01*
X137261600Y-75717400D02*
X137541000Y-75717400D01*
X137541000Y-75717400D02*
X138112711Y-75145689D01*
X138112711Y-75145689D02*
X139230311Y-75145689D01*
%TO.N,+3.3VA*%
X131394200Y-81000600D02*
X135204200Y-81000600D01*
X135414230Y-80790570D02*
X135414230Y-79629000D01*
X131330900Y-71272400D02*
X131330900Y-80937300D01*
X135204200Y-81000600D02*
X135414230Y-80790570D01*
X129794000Y-71221600D02*
X126111000Y-71221600D01*
X135414230Y-79629000D02*
X137871200Y-79629000D01*
X126111000Y-71221600D02*
X125984000Y-71094600D01*
X131330900Y-80937300D02*
X131394200Y-81000600D01*
%TO.N,I2S_MCLK*%
X143611600Y-69951600D02*
X144576800Y-70916800D01*
X139471400Y-69951600D02*
X143611600Y-69951600D01*
X144576800Y-70916800D02*
X145839570Y-70916800D01*
X146608800Y-72745600D02*
X150723600Y-72745600D01*
X150723600Y-72745600D02*
X151231600Y-73253600D01*
X145839570Y-70916800D02*
X146608800Y-71686030D01*
X146608800Y-71686030D02*
X146608800Y-72745600D01*
%TD*%
M02*
