M48
; DRILL file {KiCad (5.99.0-11177-g6c67dfa032)} date Monday, August 02, 2021 at 03:39:00 AM
; FORMAT={-:-/ absolute / inch / decimal}
; #@! TF.CreationDate,2021-08-02T03:39:00-04:00
; #@! TF.GenerationSoftware,Kicad,Pcbnew,(5.99.0-11177-g6c67dfa032)
; #@! TF.FileFunction,Plated,1,4,PTH
FMAT,2
INCH
; #@! TA.AperFunction,Plated,PTH,ViaDrill
T1C0.0157
; #@! TA.AperFunction,Plated,PTH,ComponentDrill
T2C0.0197
; #@! TA.AperFunction,Plated,PTH,ComponentDrill
T3C0.0236
; #@! TA.AperFunction,Plated,PTH,ComponentDrill
T4C0.0256
; #@! TA.AperFunction,Plated,PTH,ComponentDrill
T5C0.0315
; #@! TA.AperFunction,Plated,PTH,ComponentDrill
T6C0.0472
; #@! TA.AperFunction,Plated,PTH,ComponentDrill
T7C0.1063
%
G90
G05
T1
X4.326Y-2.966
X4.335Y-2.78
X4.419Y-2.847
X4.52Y-2.884
X4.574Y-2.975
X4.577Y-2.137
X4.59Y-3.452
X4.655Y-2.823
X4.659Y-2.59
X4.729Y-2.673
X4.749Y-2.766
X4.767Y-2.554
X4.767Y-3.459
X4.804Y-2.984
X4.811Y-2.454
X4.812Y-3.048
X4.82Y-2.855
X4.825Y-2.353
X4.828Y-2.694
X4.834Y-2.579
X4.857Y-3.179
X4.892Y-2.497
X4.893Y-2.167
X4.914Y-3.34
X4.926Y-3.023
X4.937Y-2.555
X4.9591Y-2.3815
X4.96Y-2.799
X4.963Y-2.529
X4.971Y-3.021
X4.977Y-2.664
X4.994Y-2.58
X4.9954Y-3.3875
X5.004Y-2.854
X5.006Y-3.25
X5.007Y-3.314
X5.008Y-2.186
X5.009Y-3.461
X5.0594Y-3.0184
X5.102Y-2.144
X5.11Y-2.804
X5.111Y-2.632
X5.141Y-2.703
X5.1705Y-2.806
X5.224Y-3.089
X5.257Y-2.357
X5.26Y-2.76
X5.295Y-3.057
X5.297Y-2.969
X5.318Y-2.101
X5.342Y-2.463
X5.344Y-2.971
X5.344Y-3.358
X5.387Y-2.519
X5.403Y-2.369
X5.4034Y-2.8541
X5.404Y-2.981
X5.408Y-2.739
X5.428Y-3.135
X5.466Y-2.6373
X5.466Y-2.6787
X5.47Y-2.92
X5.472Y-2.988
X5.472Y-3.102
X5.4725Y-2.505
X5.491Y-2.754
X5.516Y-2.812
X5.541Y-2.35
X5.5412Y-3.0596
X5.583Y-2.396
X5.591Y-2.315
X5.663Y-2.848
X5.665Y-2.545
X5.679Y-2.953
X5.687Y-2.077
X5.689Y-1.962
X5.7295Y-2.8215
X5.742Y-2.238
X5.767Y-2.579
X5.8245Y-2.906
X5.8246Y-2.8293
X5.881Y-3.157
X5.882Y-2.403
X5.908Y-3.414
X5.916Y-2.787
X5.918Y-3.275
X5.921Y-2.963
X5.954Y-2.884
X5.962Y-2.598
X5.977Y-2.771
X6.06Y-2.333
X6.1893Y-2.457
X6.208Y-2.258
X6.2098Y-2.4053
X6.2122Y-2.3576
X6.2307Y-2.457
X6.25Y-3.387
X6.253Y-2.735
X6.255Y-2.846
X6.255Y-3.287
X6.334Y-2.732
X6.337Y-3.287
X6.34Y-3.388
X6.347Y-2.279
X6.431Y-2.39
T2
X4.2553Y-2.01
X4.2693Y-3.37
X4.2786Y-1.9536
X4.2786Y-2.0664
X4.2926Y-3.3136
X4.2926Y-3.4264
X4.305Y-2.7956
X4.305Y-2.8448
X4.305Y-2.894
X4.305Y-2.9432
X4.335Y-1.9303
X4.335Y-2.0897
X4.349Y-3.2903
X4.349Y-3.4497
X4.3914Y-1.9536
X4.3914Y-2.0664
X4.4054Y-3.3136
X4.4054Y-3.4264
X4.4147Y-2.01
X4.4287Y-3.37
X4.6006Y-3.488
X4.6498Y-3.488
X4.699Y-3.488
X4.7482Y-3.488
X5.4733Y-3.395
X5.4966Y-3.3386
X5.4966Y-3.4514
X5.553Y-3.3153
X5.553Y-3.4747
X5.6094Y-3.3386
X5.6094Y-3.4514
X5.6327Y-3.395
X6.3683Y-1.998
X6.3916Y-1.9416
X6.3916Y-2.0544
X6.448Y-1.9183
X6.448Y-2.0777
X6.5044Y-1.9416
X6.5044Y-2.0544
X6.5277Y-1.998
T6
X5.9341Y-2.0386
X6.0719Y-2.0386
T7
X4.335Y-2.01
X4.349Y-3.37
X5.553Y-3.395
X6.448Y-1.998
T3
G00X6.4874Y-2.1646
M15
G01X6.5149Y-2.1646
M16
G05
G00X6.4874Y-2.4934
M15
G01X6.5149Y-2.4934
M16
G05
T4
G00X6.3791Y-2.2414
M15
G01X6.387Y-2.2414
M16
G05
G00X6.3791Y-2.4166
M15
G01X6.387Y-2.4166
M16
G05
T5
G00X6.293Y-2.7772
M15
G01X6.293Y-2.8048
M16
G05
G00X6.2945Y-3.3292
M15
G01X6.2945Y-3.3568
M16
G05
G00X6.4761Y-2.5941
M15
G01X6.5036Y-2.5941
M16
G05
G00X6.4761Y-2.9879
M15
G01X6.5036Y-2.9879
M16
G05
G00X6.4775Y-3.1461
M15
G01X6.5051Y-3.1461
M16
G05
G00X6.4775Y-3.5399
M15
G01X6.5051Y-3.5399
M16
G05
T0
M30
